<svg width="56.7" height="56.7" xmlns="http://www.w3.org/2000/svg">

 <g>
  <title>background</title>
  <rect fill="none" id="canvas_background" height="402" width="582" y="-1" x="-1"/>
 </g>
 <g>
  <title fill="#2e3440" stroke="#2e3440">Layer 1</title>
  <path fill="#2e3440" stroke="#2e3440" id="svg_1" d="m55.837868,14.164604l0.001213,-0.001212l-0.001213,0.000881l0,-1.303592c0,-2.473743 -2.02409,-4.497835 -4.49794,-4.497835l-0.001328,0.00121l-0.00264,0.001983l0.003967,-0.003193l-45.90143,0l0.017726,0.014423l-0.017726,-0.013213c-2.473743,0 -4.497945,2.024093 -4.497945,4.497946l0,30.726132c0,2.473747 2.024092,4.497726 4.497945,4.497726l1.601194,0l42.562515,0l0,-0.001102c4.718475,-0.054825 6.135689,-1.222336 6.242928,-4.493099l-0.007267,-29.427055zm-7.849079,-4.70075l-19.672354,14.490574l-19.544419,-14.490574l39.216773,0zm-39.836751,11.259228l18.22255,12.55192l0.018276,0.012665l-18.251286,12.690979l0.010459,-25.255564zm0.471012,26.26177l18.733747,-13.026455l0.328651,0.22868c0.188932,0.131462 0.408915,0.1973 0.628897,0.1973c0.218218,0 0.965912,-0.429394 0.965912,-0.429394l18.73881,13.029869l-39.396016,0zm39.866036,-1.014027l-18.240164,-12.683052l10.172644,-7.007027l8.06752,-5.557003l0,25.247082z"/>
 </g>
</svg>