<svg width="60" height="60" xmlns="http://www.w3.org/2000/svg">
 <title/>
 <desc/>

 <g>
  <title>background</title>
  <rect fill="none" id="canvas_background" height="402" width="582" y="-1" x="-1"/>
 </g>
 <g>
  <title>Layer 1</title>
  <path fill="#2e3440" id="github" d="m22.64282,57.90028c0,-0.71933 -0.025383,-2.622807 -0.03993,-5.150723c-8.213938,1.829086 -9.947052,-4.059525 -9.947052,-4.059525c-1.343281,-3.498249 -3.279464,-4.429436 -3.279464,-4.429436c-2.681192,-1.879265 0.203069,-1.840214 0.203069,-1.840214c2.964024,0.213711 4.523065,3.120914 4.523065,3.120914c2.634036,4.626453 6.910491,3.291862 8.594691,2.516685c0.268286,-1.957272 1.031454,-3.291862 1.874483,-4.048393c-6.557074,-0.763947 -13.451357,-3.362545 -13.451357,-14.964998c0,-3.304848 1.151244,-6.007519 3.040174,-8.124706c-0.302749,-0.765802 -1.317897,-3.843906 0.290056,-8.013163c0,0 2.479979,-0.814131 8.119726,3.10417c2.354914,-0.671054 4.88195,-1.009339 7.394535,-1.02047c2.507217,0.01113 5.032494,0.349416 7.39278,1.02047c5.636135,-3.918301 8.112499,-3.10417 8.112499,-3.10417c1.611664,4.167353 0.598274,7.245504 0.293671,8.013163c1.892639,2.117188 3.034706,4.819859 3.034706,8.124706c0,11.632231 -6.905121,14.191774 -13.483963,14.940886c1.062401,0.934898 2.005009,2.782532 2.005009,5.607922c0,4.048393 -0.038074,7.314285 -0.038074,8.306881c0,0.810421 0.533058,1.75098 2.032249,1.45536c11.723618,-4.011196 20.176941,-15.35347 20.176941,-28.725452c0,-16.723449 -13.222908,-30.279512 -29.531187,-30.279512c-16.306523,0 -29.529427,13.556064 -29.529427,30.279512c0.001855,13.375694 8.462404,24.725388 20.196854,28.729164c1.475666,0.276974 2.015945,-0.657925 2.015945,-1.459072z"/>
 </g>
</svg>