<svg width="56.693" height="56.693" xmlns="http://www.w3.org/2000/svg">

 <g>
  <title>background</title>
  <rect fill="none" id="canvas_background" height="402" width="582" y="-1" x="-1"/>
 </g>
 <g>
  <title>Layer 1</title>
  <path fill="#2e3440" id="svg_1" d="m56.096264,11.388645c-2.047909,0.910309 -4.251873,1.524343 -6.564392,1.799131c2.361141,-1.413522 4.171581,-3.65254 5.025349,-6.32353c-2.208488,1.310616 -4.653313,2.261635 -7.257587,2.775025c-2.084095,-2.220925 -5.054749,-3.609568 -8.342037,-3.609568c-6.311092,0 -11.428036,5.116947 -11.428036,11.42917c0,0.894476 0.100641,1.766336 0.296272,2.604271c-9.498863,-0.477205 -17.921191,-5.026482 -23.558314,-11.94143c-0.983811,1.687181 -1.546958,3.650279 -1.546958,5.746813c0,3.964646 2.017378,7.463393 5.084154,9.512435c-1.872633,-0.059933 -3.635578,-0.574455 -5.176882,-1.430483c-0.001131,0.047493 -0.001131,0.096119 -0.001131,0.144745c0,5.53648 3.939767,10.154737 9.168664,11.2064c-0.958932,0.260086 -1.968751,0.400307 -3.011365,0.400307c-0.737292,0 -1.453099,-0.071239 -2.150814,-0.205807c1.455361,4.54023 5.67557,7.845608 10.676047,7.937202c-3.9115,3.065651 -8.83847,4.893047 -14.194019,4.893047c-0.921616,0 -1.831924,-0.054283 -2.726401,-0.160576c5.059277,3.244312 11.066176,5.135044 17.519751,5.135044c21.023026,0 32.51778,-17.414589 32.51778,-32.517782c0,-0.495298 -0.010178,-0.989466 -0.031666,-1.48024c2.232235,-1.608023 4.170456,-3.622009 5.701584,-5.914175z"/>
 </g>
</svg>